<svg xmlns="http://www.w3.org/2000/svg" xmlns:rdkit="http://www.rdkit.org/xml" xmlns:xlink="http://www.w3.org/1999/xlink" version="1.1" baseProfile="full" xml:space="preserve" width="150px" height="150px" viewBox="0 0 150 150">
<!-- END OF HEADER -->
<rect style="opacity:1.0;fill:#FFFFFF;stroke:none" width="150.0" height="150.0" x="0.0" y="0.0"> </rect>
<ellipse cx="75.9" cy="81.7" rx="12.9" ry="12.9" class="atom-1" style="fill:#9999E5;fill-rule:evenodd;stroke:#9999E5;stroke-width:1.0px;stroke-linecap:butt;stroke-linejoin:miter;stroke-opacity:1"/>
<path class="bond-0 atom-0 atom-1" d="M 17.6,83.1 L 75.9,81.7" style="fill:none;fill-rule:evenodd;stroke:#E5E5E5;stroke-width:3.5px;stroke-linecap:butt;stroke-linejoin:miter;stroke-opacity:1"/>
<path class="bond-1 atom-1 atom-2" d="M 75.9,81.7 L 67.7,18.7" style="fill:none;fill-rule:evenodd;stroke:#E5E5E5;stroke-width:3.5px;stroke-linecap:butt;stroke-linejoin:miter;stroke-opacity:1"/>
<path class="bond-2 atom-1 atom-3" d="M 75.9,81.7 L 133.8,67.9" style="fill:none;fill-rule:evenodd;stroke:#E5E5E5;stroke-width:3.5px;stroke-linecap:butt;stroke-linejoin:miter;stroke-opacity:1"/>
<path class="bond-3 atom-1 atom-4" d="M 75.9,81.7 L 93.4,131.3" style="fill:none;fill-rule:evenodd;stroke:#E5E5E5;stroke-width:3.5px;stroke-linecap:butt;stroke-linejoin:miter;stroke-opacity:1"/>
<path class="atom-0" d="M 7.7 81.3 L 10.4 78.5 L 6.8 77.8 L 7.4 76.0 L 10.7 77.6 L 10.2 74.0 L 12.1 74.0 L 11.6 77.6 L 14.9 76.0 L 15.5 77.8 L 11.9 78.5 L 14.5 81.2 L 12.9 82.4 L 11.1 79.0 L 9.3 82.4 L 7.7 81.3 " fill="#191919"/>
<path class="atom-2" d="M 64.1 15.5 L 66.7 12.7 L 63.2 12.0 L 63.7 10.1 L 67.0 11.8 L 66.5 8.2 L 68.5 8.2 L 67.9 11.8 L 71.3 10.2 L 71.8 12.0 L 68.2 12.7 L 70.8 15.4 L 69.2 16.6 L 67.4 13.2 L 65.6 16.6 L 64.1 15.5 " fill="#191919"/>
<path class="atom-3" d="M 135.4 64.6 L 138.1 61.9 L 134.5 61.2 L 135.1 59.3 L 138.3 61.0 L 137.9 57.4 L 139.8 57.3 L 139.3 60.9 L 142.6 59.4 L 143.2 61.2 L 139.6 61.8 L 142.1 64.6 L 140.6 65.7 L 138.8 62.3 L 137.0 65.7 L 135.4 64.6 " fill="#191919"/>
<path class="atom-4" d="M 93.9 140.7 L 96.6 138.0 L 93.1 137.2 L 93.6 135.4 L 96.9 137.1 L 96.4 133.5 L 98.4 133.4 L 97.8 137.0 L 101.2 135.5 L 101.7 137.2 L 98.1 137.9 L 100.7 140.7 L 99.1 141.8 L 97.3 138.4 L 95.5 141.8 L 93.9 140.7 " fill="#191919"/>
</svg>