<svg xmlns="http://www.w3.org/2000/svg" xmlns:rdkit="http://www.rdkit.org/xml" xmlns:xlink="http://www.w3.org/1999/xlink" version="1.1" baseProfile="full" xml:space="preserve" width="150px" height="150px" viewBox="0 0 150 150">
<!-- END OF HEADER -->
<rect style="opacity:1.0;fill:#FFFFFF;stroke:none" width="150.0" height="150.0" x="0.0" y="0.0"> </rect>
<ellipse cx="75.9" cy="83.5" rx="12.9" ry="12.9" class="atom-1" style="fill:#CCCCCC;fill-rule:evenodd;stroke:#CCCCCC;stroke-width:1.0px;stroke-linecap:butt;stroke-linejoin:miter;stroke-opacity:1"/>
<ellipse cx="67.6" cy="19.7" rx="12.9" ry="12.9" class="atom-2" style="fill:#9999E5;fill-rule:evenodd;stroke:#9999E5;stroke-width:1.0px;stroke-linecap:butt;stroke-linejoin:miter;stroke-opacity:1"/>
<path class="bond-0 atom-0 atom-1" d="M 18.0,84.9 L 75.9,83.5" style="fill:none;fill-rule:evenodd;stroke:#E5E5E5;stroke-width:3.4px;stroke-linecap:butt;stroke-linejoin:miter;stroke-opacity:1"/>
<path class="bond-1 atom-1 atom-2" d="M 75.9,83.5 L 67.6,19.7" style="fill:none;fill-rule:evenodd;stroke:#000000;stroke-width:2.0px;stroke-linecap:butt;stroke-linejoin:miter;stroke-opacity:1"/>
<path class="bond-2 atom-1 atom-3" d="M 75.9,83.5 L 133.4,69.7" style="fill:none;fill-rule:evenodd;stroke:#E5E5E5;stroke-width:3.4px;stroke-linecap:butt;stroke-linejoin:miter;stroke-opacity:1"/>
<path class="bond-3 atom-1 atom-4" d="M 75.9,83.5 L 93.2,132.7" style="fill:none;fill-rule:evenodd;stroke:#E5E5E5;stroke-width:3.4px;stroke-linecap:butt;stroke-linejoin:miter;stroke-opacity:1"/>
<path class="atom-0" d="M 8.1 83.0 L 10.8 80.3 L 7.3 79.6 L 7.8 77.7 L 11.1 79.4 L 10.6 75.8 L 12.5 75.8 L 12.0 79.4 L 15.3 77.8 L 15.9 79.6 L 12.3 80.2 L 14.9 83.0 L 13.3 84.1 L 11.5 80.7 L 9.7 84.1 L 8.1 83.0 " fill="#191919"/>
<path class="atom-3" d="M 135.0 66.5 L 137.7 63.8 L 134.1 63.0 L 134.7 61.2 L 137.9 62.9 L 137.5 59.3 L 139.4 59.3 L 138.8 62.8 L 142.2 61.3 L 142.7 63.0 L 139.1 63.7 L 141.7 66.5 L 140.1 67.6 L 138.4 64.2 L 136.6 67.6 L 135.0 66.5 " fill="#191919"/>
<path class="atom-4" d="M 93.8 142.1 L 96.5 139.3 L 92.9 138.6 L 93.5 136.8 L 96.8 138.4 L 96.3 134.9 L 98.2 134.8 L 97.7 138.4 L 101.0 136.9 L 101.6 138.6 L 98.0 139.3 L 100.5 142.0 L 99.0 143.2 L 97.2 139.8 L 95.4 143.2 L 93.8 142.1 " fill="#191919"/>
</svg>