<svg xmlns="http://www.w3.org/2000/svg" xmlns:rdkit="http://www.rdkit.org/xml" xmlns:xlink="http://www.w3.org/1999/xlink" version="1.1" baseProfile="full" xml:space="preserve" width="150px" height="150px" viewBox="0 0 150 150">
<!-- END OF HEADER -->
<rect style="opacity:1.0;fill:#FFFFFF;stroke:none" width="150.0" height="150.0" x="0.0" y="0.0"> </rect>
<ellipse cx="37.2" cy="129.9" rx="13.2" ry="13.2" class="atom-2" style="fill:#9999E5;fill-rule:evenodd;stroke:#9999E5;stroke-width:1.0px;stroke-linecap:butt;stroke-linejoin:miter;stroke-opacity:1"/>
<path class="bond-0 atom-0 atom-1" d="M 23.0,17.6 L 62.4,68.7" style="fill:none;fill-rule:evenodd;stroke:#E5E5E5;stroke-width:3.5px;stroke-linecap:butt;stroke-linejoin:miter;stroke-opacity:1"/>
<path class="bond-1 atom-1 atom-2" d="M 58.9,64.2 L 48.2,90.3" style="fill:none;fill-rule:evenodd;stroke:#000000;stroke-width:2.0px;stroke-linecap:butt;stroke-linejoin:miter;stroke-opacity:1"/>
<path class="bond-1 atom-1 atom-2" d="M 48.2,90.3 L 37.4,116.4" style="fill:none;fill-rule:evenodd;stroke:#FF0000;stroke-width:2.0px;stroke-linecap:butt;stroke-linejoin:miter;stroke-opacity:1"/>
<path class="bond-1 atom-1 atom-2" d="M 68.1,68.0 L 57.4,94.1" style="fill:none;fill-rule:evenodd;stroke:#000000;stroke-width:2.0px;stroke-linecap:butt;stroke-linejoin:miter;stroke-opacity:1"/>
<path class="bond-1 atom-1 atom-2" d="M 57.4,94.1 L 46.6,120.2" style="fill:none;fill-rule:evenodd;stroke:#FF0000;stroke-width:2.0px;stroke-linecap:butt;stroke-linejoin:miter;stroke-opacity:1"/>
<path class="bond-2 atom-1 atom-3" d="M 62.4,68.7 L 121.4,60.8" style="fill:none;fill-rule:evenodd;stroke:#E5E5E5;stroke-width:3.5px;stroke-linecap:butt;stroke-linejoin:miter;stroke-opacity:1"/>
<path d="M 60.4,66.2 L 62.4,68.7 L 65.4,68.4" style="fill:none;stroke:#E5E5E5;stroke-width:3.5px;stroke-linecap:butt;stroke-linejoin:miter;stroke-opacity:1;"/>
<path class="atom-0" d="M 18.5 14.3 L 21.2 11.5 L 17.6 10.7 L 18.1 8.8 L 21.5 10.5 L 21.0 6.8 L 23.0 6.8 L 22.4 10.5 L 25.9 8.9 L 26.4 10.7 L 22.7 11.4 L 25.4 14.2 L 23.8 15.4 L 21.9 11.9 L 20.1 15.4 L 18.5 14.3 " fill="#191919"/>
<path class="atom-2" d="M 28.6 130.0 Q 28.6 125.5, 30.9 123.0 Q 33.1 120.5, 37.2 120.5 Q 41.4 120.5, 43.6 123.0 Q 45.8 125.5, 45.8 130.0 Q 45.8 134.6, 43.6 137.1 Q 41.3 139.7, 37.2 139.7 Q 33.1 139.7, 30.9 137.1 Q 28.6 134.6, 28.6 130.0 M 37.2 137.6 Q 40.1 137.6, 41.6 135.7 Q 43.2 133.8, 43.2 130.0 Q 43.2 126.3, 41.6 124.5 Q 40.1 122.6, 37.2 122.6 Q 34.4 122.6, 32.8 124.4 Q 31.3 126.3, 31.3 130.0 Q 31.3 133.8, 32.8 135.7 Q 34.4 137.6, 37.2 137.6 " fill="#FF0000"/>
<path class="atom-3" d="M 124.5 57.9 L 127.2 55.1 L 123.6 54.3 L 124.1 52.4 L 127.5 54.1 L 127.0 50.5 L 129.0 50.4 L 128.4 54.1 L 131.8 52.5 L 132.4 54.3 L 128.7 55.0 L 131.4 57.8 L 129.8 59.0 L 127.9 55.5 L 126.1 59.0 L 124.5 57.9 " fill="#191919"/>
</svg>