<svg xmlns="http://www.w3.org/2000/svg" xmlns:rdkit="http://www.rdkit.org/xml" xmlns:xlink="http://www.w3.org/1999/xlink" version="1.1" baseProfile="full" xml:space="preserve" width="150px" height="150px" viewBox="0 0 150 150">
<!-- END OF HEADER -->
<rect style="opacity:1.0;fill:#FFFFFF;stroke:none" width="150.0" height="150.0" x="0.0" y="0.0"> </rect>
<ellipse cx="72.1" cy="122.4" rx="20.6" ry="20.6" class="atom-1" style="fill:#9999E5;fill-rule:evenodd;stroke:#9999E5;stroke-width:1.0px;stroke-linecap:butt;stroke-linejoin:miter;stroke-opacity:1"/>
<path class="bond-0 atom-0 atom-1" d="M 91.4,23.4 L 75.5,104.8" style="fill:none;fill-rule:evenodd;stroke:#E5E5E5;stroke-width:5.5px;stroke-linecap:butt;stroke-linejoin:miter;stroke-opacity:1"/>
<path class="atom-0" d="M 86.4 18.3 L 90.6 14.0 L 85.1 12.9 L 85.9 10.1 L 91.0 12.6 L 90.3 7.1 L 93.3 7.0 L 92.4 12.6 L 97.6 10.2 L 98.5 12.9 L 92.9 13.9 L 96.9 18.2 L 94.4 20.0 L 91.7 14.7 L 88.9 20.0 L 86.4 18.3 " fill="#191919"/>
<path class="atom-1" d="M 63.7 108.2 L 80.5 108.2 L 80.5 111.5 L 67.5 111.5 L 67.5 120.1 L 79.1 120.1 L 79.1 123.4 L 67.5 123.4 L 67.5 136.6 L 63.7 136.6 L 63.7 108.2 " fill="#33CCCC"/>
</svg>