<svg xmlns="http://www.w3.org/2000/svg" xmlns:rdkit="http://www.rdkit.org/xml" xmlns:xlink="http://www.w3.org/1999/xlink" version="1.1" baseProfile="full" xml:space="preserve" width="150px" height="150px" viewBox="0 0 150 150">
<!-- END OF HEADER -->
<rect style="opacity:1.0;fill:#FFFFFF;stroke:none" width="150.0" height="150.0" x="0.0" y="0.0"> </rect>
<ellipse cx="115.4" cy="99.0" rx="6.9" ry="6.9" class="atom-1" style="fill:#E5E533;fill-rule:evenodd;stroke:#E5E533;stroke-width:1.0px;stroke-linecap:butt;stroke-linejoin:miter;stroke-opacity:1"/>
<ellipse cx="122.9" cy="65.4" rx="6.9" ry="6.9" class="atom-2" style="fill:#E5E533;fill-rule:evenodd;stroke:#E5E533;stroke-width:1.0px;stroke-linecap:butt;stroke-linejoin:miter;stroke-opacity:1"/>
<ellipse cx="97.4" cy="42.2" rx="6.9" ry="6.9" class="atom-3" style="fill:#9999E5;fill-rule:evenodd;stroke:#9999E5;stroke-width:1.0px;stroke-linecap:butt;stroke-linejoin:miter;stroke-opacity:1"/>
<ellipse cx="64.6" cy="52.6" rx="6.9" ry="6.9" class="atom-4" style="fill:#E5E533;fill-rule:evenodd;stroke:#E5E533;stroke-width:1.0px;stroke-linecap:butt;stroke-linejoin:miter;stroke-opacity:1"/>
<ellipse cx="57.2" cy="86.2" rx="6.9" ry="6.9" class="atom-5" style="fill:#E5E533;fill-rule:evenodd;stroke:#E5E533;stroke-width:1.0px;stroke-linecap:butt;stroke-linejoin:miter;stroke-opacity:1"/>
<ellipse cx="34.9" cy="35.1" rx="6.9" ry="6.9" class="atom-9" style="fill:#CCCCCC;fill-rule:evenodd;stroke:#CCCCCC;stroke-width:1.0px;stroke-linecap:butt;stroke-linejoin:miter;stroke-opacity:1"/>
<path class="bond-0 atom-0 atom-1" d="M 137.4,119.1 L 115.4,99.0" style="fill:none;fill-rule:evenodd;stroke:#E5E5E5;stroke-width:1.8px;stroke-linecap:butt;stroke-linejoin:miter;stroke-opacity:1"/>
<path class="bond-1 atom-1 atom-2" d="M 115.4,99.0 L 122.9,65.4" style="fill:none;fill-rule:evenodd;stroke:#000000;stroke-width:2.0px;stroke-linecap:butt;stroke-linejoin:miter;stroke-opacity:1"/>
<path class="bond-1 atom-1 atom-2" d="M 111.0,95.0 L 117.2,67.2" style="fill:none;fill-rule:evenodd;stroke:#000000;stroke-width:2.0px;stroke-linecap:butt;stroke-linejoin:miter;stroke-opacity:1"/>
<path class="bond-2 atom-2 atom-3" d="M 122.9,65.4 L 97.4,42.2" style="fill:none;fill-rule:evenodd;stroke:#000000;stroke-width:2.0px;stroke-linecap:butt;stroke-linejoin:miter;stroke-opacity:1"/>
<path class="bond-3 atom-3 atom-4" d="M 97.4,42.2 L 64.6,52.6" style="fill:none;fill-rule:evenodd;stroke:#000000;stroke-width:2.0px;stroke-linecap:butt;stroke-linejoin:miter;stroke-opacity:1"/>
<path class="bond-3 atom-3 atom-4" d="M 96.1,48.0 L 69.0,56.6" style="fill:none;fill-rule:evenodd;stroke:#000000;stroke-width:2.0px;stroke-linecap:butt;stroke-linejoin:miter;stroke-opacity:1"/>
<path class="bond-4 atom-4 atom-5" d="M 64.6,52.6 L 57.2,86.2" style="fill:none;fill-rule:evenodd;stroke:#000000;stroke-width:2.0px;stroke-linecap:butt;stroke-linejoin:miter;stroke-opacity:1"/>
<path class="bond-5 atom-5 atom-6" d="M 57.2,86.2 L 79.2,106.3" style="fill:none;fill-rule:evenodd;stroke:#E5E5E5;stroke-width:1.8px;stroke-linecap:butt;stroke-linejoin:miter;stroke-opacity:1"/>
<path class="bond-5 atom-5 atom-6" d="M 62.9,84.4 L 82.7,102.5" style="fill:none;fill-rule:evenodd;stroke:#E5E5E5;stroke-width:1.8px;stroke-linecap:butt;stroke-linejoin:miter;stroke-opacity:1"/>
<path class="bond-6 atom-5 atom-7" d="M 57.2,86.2 L 26.4,89.2" style="fill:none;fill-rule:evenodd;stroke:#E5E5E5;stroke-width:1.8px;stroke-linecap:butt;stroke-linejoin:miter;stroke-opacity:1"/>
<path class="bond-7 atom-8 atom-9" d="M 12.6,54.9 L 34.9,35.1" style="fill:none;fill-rule:evenodd;stroke:#E5E5E5;stroke-width:1.8px;stroke-linecap:butt;stroke-linejoin:miter;stroke-opacity:1"/>
<path class="bond-8 atom-6 atom-1" d="M 86.1,108.3 L 115.4,99.0" style="fill:none;fill-rule:evenodd;stroke:#E5E5E5;stroke-width:1.8px;stroke-linecap:butt;stroke-linejoin:miter;stroke-opacity:1"/>
<path class="bond-9 atom-9 atom-4" d="M 34.9,35.1 L 64.6,52.6" style="fill:none;fill-rule:evenodd;stroke:#000000;stroke-width:2.0px;stroke-linecap:butt;stroke-linejoin:miter;stroke-opacity:1"/>
<path d="M 122.5,67.1 L 122.9,65.4 L 121.6,64.2" style="fill:none;stroke:#000000;stroke-width:2.0px;stroke-linecap:butt;stroke-linejoin:miter;stroke-opacity:1;"/>
<path d="M 98.7,43.3 L 97.4,42.2 L 95.8,42.7" style="fill:none;stroke:#000000;stroke-width:2.0px;stroke-linecap:butt;stroke-linejoin:miter;stroke-opacity:1;"/>
<path d="M 34.3,35.6 L 34.9,35.1 L 35.6,35.6" style="fill:none;stroke:#E5E5E5;stroke-width:1.8px;stroke-linecap:butt;stroke-linejoin:miter;stroke-opacity:1;"/>
<path class="atom-0" d="M 139.0 121.2 L 140.5 119.7 L 138.6 119.3 L 138.9 118.3 L 140.6 119.2 L 140.4 117.3 L 141.4 117.3 L 141.1 119.2 L 142.9 118.4 L 143.2 119.3 L 141.3 119.7 L 142.6 121.2 L 141.8 121.8 L 140.8 119.9 L 139.9 121.8 L 139.0 121.2 " fill="#191919"/>
<path class="atom-6" d="M 80.8 108.3 L 82.2 106.9 L 80.3 106.5 L 80.6 105.5 L 82.3 106.4 L 82.1 104.5 L 83.1 104.5 L 82.8 106.4 L 84.6 105.6 L 84.9 106.5 L 83.0 106.9 L 84.4 108.3 L 83.5 108.9 L 82.6 107.1 L 81.6 108.9 L 80.8 108.3 " fill="#191919"/>
<path class="atom-7" d="M 21.1 88.5 L 22.5 87.0 L 20.6 86.6 L 20.9 85.6 L 22.6 86.5 L 22.4 84.6 L 23.4 84.6 L 23.1 86.5 L 24.9 85.7 L 25.2 86.6 L 23.3 87.0 L 24.7 88.5 L 23.8 89.1 L 22.9 87.2 L 21.9 89.1 L 21.1 88.5 " fill="#191919"/>
<path class="atom-8" d="M 7.3 56.9 L 8.7 55.4 L 6.8 55.1 L 7.1 54.1 L 8.9 55.0 L 8.6 53.0 L 9.6 53.0 L 9.4 54.9 L 11.1 54.1 L 11.4 55.1 L 9.5 55.4 L 10.9 56.9 L 10.0 57.5 L 9.1 55.7 L 8.1 57.5 L 7.3 56.9 " fill="#191919"/>
</svg>