<svg xmlns="http://www.w3.org/2000/svg" xmlns:rdkit="http://www.rdkit.org/xml" xmlns:xlink="http://www.w3.org/1999/xlink" version="1.1" baseProfile="full" xml:space="preserve" width="150px" height="150px" viewBox="0 0 150 150">
<!-- END OF HEADER -->
<rect style="opacity:1.0;fill:#FFFFFF;stroke:none" width="150.0" height="150.0" x="0.0" y="0.0"> </rect>
<ellipse cx="20.7" cy="47.0" rx="13.9" ry="13.9" class="atom-0" style="fill:#9999E5;fill-rule:evenodd;stroke:#9999E5;stroke-width:1.0px;stroke-linecap:butt;stroke-linejoin:miter;stroke-opacity:1"/>
<path class="bond-0 atom-0 atom-1" d="M 24.5,48.3 L 55.4,58.8" style="fill:none;fill-rule:evenodd;stroke:#191919;stroke-width:2.0px;stroke-linecap:butt;stroke-linejoin:miter;stroke-opacity:1"/>
<path class="bond-0 atom-0 atom-1" d="M 55.4,58.8 L 86.4,69.3" style="fill:none;fill-rule:evenodd;stroke:#000000;stroke-width:2.0px;stroke-linecap:butt;stroke-linejoin:miter;stroke-opacity:1"/>
<path class="bond-1 atom-1 atom-2" d="M 87.5,75.2 L 140.5,28.8" style="fill:none;fill-rule:evenodd;stroke:#E5E5E5;stroke-width:3.7px;stroke-linecap:butt;stroke-linejoin:miter;stroke-opacity:1"/>
<path class="bond-1 atom-1 atom-2" d="M 80.7,67.4 L 133.6,21.0" style="fill:none;fill-rule:evenodd;stroke:#E5E5E5;stroke-width:3.7px;stroke-linecap:butt;stroke-linejoin:miter;stroke-opacity:1"/>
<path class="bond-2 atom-1 atom-3" d="M 86.4,69.3 L 97.4,125.1" style="fill:none;fill-rule:evenodd;stroke:#E5E5E5;stroke-width:3.7px;stroke-linecap:butt;stroke-linejoin:miter;stroke-opacity:1"/>
<path d="M 85.6,69.1 L 86.4,69.3 L 86.6,70.7" style="fill:none;stroke:#000000;stroke-width:2.0px;stroke-linecap:butt;stroke-linejoin:miter;stroke-opacity:1;"/>
<path class="atom-0" d="M 17.0 44.8 L 19.9 41.8 L 16.0 41.1 L 16.6 39.1 L 20.1 40.9 L 19.6 37.0 L 21.7 37.0 L 21.1 40.8 L 24.7 39.2 L 25.3 41.1 L 21.5 41.8 L 24.2 44.8 L 22.5 46.0 L 20.6 42.3 L 18.7 46.0 L 17.0 44.8 " fill="#191919"/>
<path class="atom-2" d="M 134.8 21.4 L 137.7 18.5 L 133.9 17.7 L 134.5 15.8 L 138.0 17.5 L 137.5 13.7 L 139.6 13.6 L 139.0 17.5 L 142.6 15.8 L 143.2 17.7 L 139.3 18.4 L 142.1 21.4 L 140.4 22.6 L 138.5 19.0 L 136.5 22.6 L 134.8 21.4 " fill="#191919"/>
<path class="atom-3" d="M 96.1 135.2 L 99.0 132.2 L 95.2 131.4 L 95.8 129.5 L 99.3 131.3 L 98.8 127.4 L 100.9 127.4 L 100.3 131.2 L 103.9 129.6 L 104.5 131.4 L 100.6 132.2 L 103.4 135.1 L 101.7 136.4 L 99.8 132.7 L 97.8 136.4 L 96.1 135.2 " fill="#191919"/>
</svg>