<svg xmlns="http://www.w3.org/2000/svg" xmlns:rdkit="http://www.rdkit.org/xml" xmlns:xlink="http://www.w3.org/1999/xlink" version="1.1" baseProfile="full" xml:space="preserve" width="150px" height="150px" viewBox="0 0 150 150">
<!-- END OF HEADER -->
<rect style="opacity:1.0;fill:#FFFFFF;stroke:none" width="150.0" height="150.0" x="0.0" y="0.0"> </rect>
<ellipse cx="85.0" cy="90.0" rx="14.2" ry="14.2" class="atom-1" style="fill:#CCCCCC;fill-rule:evenodd;stroke:#CCCCCC;stroke-width:1.0px;stroke-linecap:butt;stroke-linejoin:miter;stroke-opacity:1"/>
<ellipse cx="101.9" cy="21.0" rx="14.2" ry="14.2" class="atom-2" style="fill:#9999E5;fill-rule:evenodd;stroke:#9999E5;stroke-width:1.0px;stroke-linecap:butt;stroke-linejoin:miter;stroke-opacity:1"/>
<path class="bond-0 atom-0 atom-1" d="M 123.7,135.8 L 85.0,90.0" style="fill:none;fill-rule:evenodd;stroke:#E5E5E5;stroke-width:3.8px;stroke-linecap:butt;stroke-linejoin:miter;stroke-opacity:1"/>
<path class="bond-1 atom-1 atom-2" d="M 89.2,95.0 L 96.6,65.0" style="fill:none;fill-rule:evenodd;stroke:#000000;stroke-width:2.0px;stroke-linecap:butt;stroke-linejoin:miter;stroke-opacity:1"/>
<path class="bond-1 atom-1 atom-2" d="M 96.6,65.0 L 104.0,35.1" style="fill:none;fill-rule:evenodd;stroke:#FF0000;stroke-width:2.0px;stroke-linecap:butt;stroke-linejoin:miter;stroke-opacity:1"/>
<path class="bond-1 atom-1 atom-2" d="M 78.9,92.4 L 86.2,62.5" style="fill:none;fill-rule:evenodd;stroke:#000000;stroke-width:2.0px;stroke-linecap:butt;stroke-linejoin:miter;stroke-opacity:1"/>
<path class="bond-1 atom-1 atom-2" d="M 86.2,62.5 L 93.6,32.6" style="fill:none;fill-rule:evenodd;stroke:#FF0000;stroke-width:2.0px;stroke-linecap:butt;stroke-linejoin:miter;stroke-opacity:1"/>
<path class="bond-2 atom-1 atom-3" d="M 85.0,90.0 L 26.3,113.9" style="fill:none;fill-rule:evenodd;stroke:#E5E5E5;stroke-width:3.8px;stroke-linecap:butt;stroke-linejoin:miter;stroke-opacity:1"/>
<path d="M 86.9,92.2 L 85.0,90.0 L 82.0,91.2" style="fill:none;stroke:#E5E5E5;stroke-width:3.8px;stroke-linecap:butt;stroke-linejoin:miter;stroke-opacity:1;"/>
<path class="atom-0" d="M 127.0 142.0 L 129.9 139.0 L 126.0 138.2 L 126.6 136.1 L 130.2 138.0 L 129.7 134.0 L 131.8 134.0 L 131.2 137.9 L 134.9 136.2 L 135.5 138.2 L 131.6 138.9 L 134.4 141.9 L 132.7 143.2 L 130.7 139.4 L 128.7 143.2 L 127.0 142.0 " fill="#191919"/>
<path class="atom-2" d="M 92.7 21.1 Q 92.7 16.2, 95.1 13.5 Q 97.5 10.9, 101.9 10.9 Q 106.4 10.9, 108.8 13.5 Q 111.2 16.2, 111.2 21.1 Q 111.2 26.0, 108.8 28.7 Q 106.3 31.5, 101.9 31.5 Q 97.5 31.5, 95.1 28.7 Q 92.7 26.0, 92.7 21.1 M 101.9 29.2 Q 105.0 29.2, 106.7 27.2 Q 108.3 25.1, 108.3 21.1 Q 108.3 17.1, 106.7 15.1 Q 105.0 13.1, 101.9 13.1 Q 98.9 13.1, 97.2 15.1 Q 95.5 17.1, 95.5 21.1 Q 95.5 25.1, 97.2 27.2 Q 98.9 29.2, 101.9 29.2 " fill="#FF0000"/>
<path class="atom-3" d="M 15.4 114.5 L 18.4 111.5 L 14.5 110.7 L 15.1 108.7 L 18.7 110.5 L 18.2 106.6 L 20.3 106.5 L 19.7 110.5 L 23.4 108.8 L 24.0 110.7 L 20.0 111.4 L 22.8 114.5 L 21.1 115.7 L 19.2 112.0 L 17.2 115.7 L 15.4 114.5 " fill="#191919"/>
</svg>