<svg xmlns="http://www.w3.org/2000/svg" xmlns:rdkit="http://www.rdkit.org/xml" xmlns:xlink="http://www.w3.org/1999/xlink" version="1.1" baseProfile="full" xml:space="preserve" width="150px" height="150px" viewBox="0 0 150 150">
<!-- END OF HEADER -->
<rect style="opacity:1.0;fill:#FFFFFF;stroke:none" width="150.0" height="150.0" x="0.0" y="0.0"> </rect>
<ellipse cx="62.0" cy="121.1" rx="21.5" ry="21.5" class="atom-1" style="fill:#9999E5;fill-rule:evenodd;stroke:#9999E5;stroke-width:1.0px;stroke-linecap:butt;stroke-linejoin:miter;stroke-opacity:1"/>
<path class="bond-0 atom-0 atom-1" d="M 109.4,26.9 L 76.8,106.3" style="fill:none;fill-rule:evenodd;stroke:#E5E5E5;stroke-width:5.7px;stroke-linecap:butt;stroke-linejoin:miter;stroke-opacity:1"/>
<path class="bond-0 atom-0 atom-1" d="M 94.5,20.8 L 61.8,100.2" style="fill:none;fill-rule:evenodd;stroke:#E5E5E5;stroke-width:5.7px;stroke-linecap:butt;stroke-linejoin:miter;stroke-opacity:1"/>
<path class="atom-0" d="M 97.5 18.6 L 101.7 14.4 L 96.1 13.2 L 97.0 10.4 L 102.1 13.0 L 101.3 7.4 L 104.3 7.4 L 103.5 12.9 L 108.7 10.5 L 109.5 13.2 L 103.9 14.3 L 107.9 18.6 L 105.5 20.3 L 102.7 15.0 L 99.9 20.3 L 97.5 18.6 " fill="#191919"/>
<path class="atom-1" d="M 49.0 121.2 Q 49.0 114.4, 52.3 110.6 Q 55.7 106.8, 62.0 106.8 Q 68.2 106.8, 71.6 110.6 Q 75.0 114.4, 75.0 121.2 Q 75.0 128.1, 71.6 132.0 Q 68.2 135.9, 62.0 135.9 Q 55.7 135.9, 52.3 132.0 Q 49.0 128.1, 49.0 121.2 M 62.0 132.7 Q 66.3 132.7, 68.6 129.8 Q 71.0 126.9, 71.0 121.2 Q 71.0 115.7, 68.6 112.9 Q 66.3 110.0, 62.0 110.0 Q 57.6 110.0, 55.3 112.8 Q 53.0 115.6, 53.0 121.2 Q 53.0 126.9, 55.3 129.8 Q 57.6 132.7, 62.0 132.7 " fill="#FF0000"/>
</svg>