<svg xmlns="http://www.w3.org/2000/svg" xmlns:rdkit="http://www.rdkit.org/xml" xmlns:xlink="http://www.w3.org/1999/xlink" version="1.1" baseProfile="full" xml:space="preserve" width="150px" height="150px" viewBox="0 0 150 150">
<!-- END OF HEADER -->
<rect style="opacity:1.0;fill:#FFFFFF;stroke:none" width="150.0" height="150.0" x="0.0" y="0.0"> </rect>
<ellipse cx="69.6" cy="19.3" rx="12.5" ry="12.5" class="atom-2" style="fill:#9999E5;fill-rule:evenodd;stroke:#9999E5;stroke-width:1.0px;stroke-linecap:butt;stroke-linejoin:miter;stroke-opacity:1"/>
<path class="bond-0 atom-0 atom-1" d="M 18.9,86.5 L 65.2,82.6" style="fill:none;fill-rule:evenodd;stroke:#E5E5E5;stroke-width:3.3px;stroke-linecap:butt;stroke-linejoin:miter;stroke-opacity:1"/>
<path class="bond-1 atom-1 atom-2" d="M 74.1,70.8 L 69.6,19.3" style="fill:none;fill-rule:evenodd;stroke:#000000;stroke-width:2.0px;stroke-linecap:butt;stroke-linejoin:miter;stroke-opacity:1"/>
<path class="bond-2 atom-1 atom-3" d="M 76.0,93.1 L 79.4,133.0" style="fill:none;fill-rule:evenodd;stroke:#E5E5E5;stroke-width:3.3px;stroke-linecap:butt;stroke-linejoin:miter;stroke-opacity:1"/>
<path class="bond-3 atom-1 atom-4" d="M 84.8,80.9 L 131.1,76.9" style="fill:none;fill-rule:evenodd;stroke:#E5E5E5;stroke-width:3.3px;stroke-linecap:butt;stroke-linejoin:miter;stroke-opacity:1"/>
<path class="atom-0" d="M 9.3 85.1 L 11.9 82.4 L 8.4 81.7 L 9.0 80.0 L 12.1 81.6 L 11.7 78.1 L 13.6 78.1 L 13.0 81.5 L 16.3 80.0 L 16.8 81.7 L 13.3 82.4 L 15.8 85.1 L 14.3 86.2 L 12.6 82.9 L 10.8 86.2 L 9.3 85.1 " fill="#191919"/>
<path class="atom-1" d="M 67.9 87.8 Q 68.1 87.9, 68.9 88.2 Q 69.8 88.6, 70.7 88.8 Q 71.6 89.0, 72.5 89.0 Q 74.2 89.0, 75.1 88.2 Q 76.1 87.4, 76.1 86.0 Q 76.1 85.0, 75.6 84.4 Q 75.1 83.8, 74.4 83.5 Q 73.6 83.1, 72.4 82.8 Q 70.8 82.3, 69.9 81.8 Q 68.9 81.4, 68.3 80.4 Q 67.6 79.5, 67.6 77.9 Q 67.6 75.7, 69.1 74.3 Q 70.6 72.9, 73.6 72.9 Q 75.7 72.9, 78.0 73.9 L 77.5 75.8 Q 75.3 74.9, 73.7 74.9 Q 72.0 74.9, 71.0 75.7 Q 70.1 76.4, 70.1 77.6 Q 70.1 78.5, 70.6 79.1 Q 71.1 79.7, 71.8 80.0 Q 72.5 80.3, 73.7 80.7 Q 75.3 81.2, 76.3 81.7 Q 77.2 82.2, 77.9 83.2 Q 78.6 84.2, 78.6 86.0 Q 78.6 88.4, 76.9 89.7 Q 75.3 91.1, 72.6 91.1 Q 71.0 91.1, 69.8 90.7 Q 68.6 90.4, 67.2 89.8 L 67.9 87.8 " fill="#000000"/>
<path class="atom-1" d="M 80.5 72.8 L 82.8 72.8 L 82.8 75.0 L 80.5 75.0 L 80.5 72.8 M 80.5 77.7 L 82.8 77.7 L 82.8 90.6 L 80.5 90.6 L 80.5 77.7 " fill="#000000"/>
<path class="atom-3" d="M 77.0 142.1 L 79.6 139.5 L 76.2 138.7 L 76.7 137.0 L 79.9 138.6 L 79.4 135.1 L 81.3 135.1 L 80.8 138.5 L 84.0 137.0 L 84.6 138.7 L 81.1 139.4 L 83.6 142.1 L 82.0 143.2 L 80.3 139.9 L 78.5 143.2 L 77.0 142.1 " fill="#191919"/>
<path class="atom-4" d="M 134.0 74.4 L 136.6 71.7 L 133.2 71.0 L 133.7 69.2 L 136.9 70.8 L 136.4 67.4 L 138.3 67.3 L 137.8 70.8 L 141.0 69.3 L 141.6 71.0 L 138.1 71.7 L 140.6 74.3 L 139.0 75.4 L 137.3 72.1 L 135.6 75.4 L 134.0 74.4 " fill="#191919"/>
</svg>