<svg xmlns="http://www.w3.org/2000/svg" xmlns:rdkit="http://www.rdkit.org/xml" xmlns:xlink="http://www.w3.org/1999/xlink" version="1.1" baseProfile="full" xml:space="preserve" width="150px" height="150px" viewBox="0 0 150 150">
<!-- END OF HEADER -->
<rect style="opacity:1.0;fill:#FFFFFF;stroke:none" width="150.0" height="150.0" x="0.0" y="0.0"> </rect>
<ellipse cx="89.9" cy="52.3" rx="15.7" ry="15.7" class="atom-1" style="fill:#9999E5;fill-rule:evenodd;stroke:#9999E5;stroke-width:1.0px;stroke-linecap:butt;stroke-linejoin:miter;stroke-opacity:1"/>
<path class="bond-0 atom-0 atom-1" d="M 19.9,61.7 L 77.1,54.0" style="fill:none;fill-rule:evenodd;stroke:#E5E5E5;stroke-width:4.2px;stroke-linecap:butt;stroke-linejoin:miter;stroke-opacity:1"/>
<path class="bond-1 atom-1 atom-2" d="M 100.9,66.5 L 130.1,104.3" style="fill:none;fill-rule:evenodd;stroke:#E5E5E5;stroke-width:4.2px;stroke-linecap:butt;stroke-linejoin:miter;stroke-opacity:1"/>
<path class="atom-0" d="M 7.9 60.3 L 11.2 56.9 L 6.8 56.1 L 7.5 53.8 L 11.5 55.8 L 10.9 51.5 L 13.3 51.4 L 12.6 55.8 L 16.7 53.9 L 17.3 56.1 L 12.9 56.9 L 16.1 60.2 L 14.2 61.6 L 12.0 57.5 L 9.8 61.6 L 7.9 60.3 " fill="#191919"/>
<path class="atom-1" d="M 79.7 52.4 Q 79.7 47.0, 82.4 44.1 Q 85.0 41.1, 89.9 41.1 Q 94.9 41.1, 97.5 44.1 Q 100.2 47.0, 100.2 52.4 Q 100.2 57.8, 97.5 60.9 Q 94.8 63.9, 89.9 63.9 Q 85.0 63.9, 82.4 60.9 Q 79.7 57.8, 79.7 52.4 M 89.9 61.4 Q 93.3 61.4, 95.2 59.1 Q 97.0 56.8, 97.0 52.4 Q 97.0 48.0, 95.2 45.8 Q 93.3 43.6, 89.9 43.6 Q 86.6 43.6, 84.7 45.8 Q 82.9 48.0, 82.9 52.4 Q 82.9 56.9, 84.7 59.1 Q 86.6 61.4, 89.9 61.4 " fill="#FF0000"/>
<path class="atom-2" d="M 133.7 112.0 L 137.0 108.7 L 132.7 107.8 L 133.3 105.6 L 137.3 107.6 L 136.7 103.2 L 139.1 103.2 L 138.4 107.6 L 142.5 105.7 L 143.2 107.8 L 138.8 108.7 L 141.9 112.0 L 140.0 113.4 L 137.8 109.2 L 135.6 113.4 L 133.7 112.0 " fill="#191919"/>
</svg>